<svg width="180" height="90" viewBox="0 0 180 90" fill="none" xmlns="http://www.w3.org/2000/svg">
<path d="M44 66C31.85 66 22 56.15 22 44C22 31.85 31.85 22 44 22C48.83 22 53.32 23.57 56.99 26.24C61.02 17.73 69.76 12 79.5 12C91.87 12 102.28 20.17 105.55 31.45C107.71 30.47 110.08 30 112.5 30C122.16 30 130 37.84 130 47.5C130 57.16 122.16 65 112.5 65H44Z" fill="#FFFFFF" fill-opacity="0.75"/>
<path d="M70 71C57.85 71 48 61.15 48 49C48 36.85 57.85 27 70 27C74.83 27 79.32 28.57 82.99 31.24C87.02 22.73 95.76 17 105.5 17C117.87 17 128.28 25.17 131.55 36.45C133.71 35.47 136.08 35 138.5 35C148.16 35 156 42.84 156 52.5C156 62.16 148.16 70 138.5 70H70Z" fill="#FFFFFF" fill-opacity="0.65"/>
</svg>
